<svg xmlns="http://www.w3.org/2000/svg" width="340" height="328" viewBox="0 0 340 328">
  <rect width="340" height="328" rx="8" fill="#0d1117" stroke="#30363d" stroke-width="1"/>
  <text x="20" y="22" font-family="Segoe UI,Ubuntu,Sans-Serif" font-size="14" font-weight="600" fill="#e6edf3">Most Used Languages</text>
  <line x1="20" y1="30" x2="320" y2="30" stroke="#30363d" stroke-width="0.5"/>
  <circle cx="25" cy="46" r="5" fill="#3572A5"/>
  <text x="36" y="50" font-family="Segoe UI,Ubuntu,Sans-Serif" font-size="12" fill="#8b949e">Python</text>
  <text x="320" y="50" text-anchor="end" font-family="Segoe UI,Ubuntu,Sans-Serif" font-size="11" fill="#e6edf3">42.3%</text>
  <rect x="20" y="58" width="300" height="8" rx="4" fill="#21262d"/>
  <rect x="20" y="58" width="0" height="8" rx="4" fill="#3572A5" opacity="0.9">
    <animate attributeName="width" from="0" to="126" dur="0.9s" begin="0.00s" fill="freeze" calcMode="spline" keySplines="0.4 0 0.2 1"/>
    <animate attributeName="opacity" from="0" to="0.9" dur="0.36s" begin="0.00s" fill="freeze"/>
  </rect>
  <circle cx="25" cy="92" r="5" fill="#3178c6"/>
  <text x="36" y="96" font-family="Segoe UI,Ubuntu,Sans-Serif" font-size="12" fill="#8b949e">TypeScript</text>
  <text x="320" y="96" text-anchor="end" font-family="Segoe UI,Ubuntu,Sans-Serif" font-size="11" fill="#e6edf3">23.1%</text>
  <rect x="20" y="104" width="300" height="8" rx="4" fill="#21262d"/>
  <rect x="20" y="104" width="0" height="8" rx="4" fill="#3178c6" opacity="0.9">
    <animate attributeName="width" from="0" to="69" dur="0.9s" begin="0.12s" fill="freeze" calcMode="spline" keySplines="0.4 0 0.2 1"/>
    <animate attributeName="opacity" from="0" to="0.9" dur="0.36s" begin="0.12s" fill="freeze"/>
  </rect>
  <circle cx="25" cy="138" r="5" fill="#dea584"/>
  <text x="36" y="142" font-family="Segoe UI,Ubuntu,Sans-Serif" font-size="12" fill="#8b949e">Rust</text>
  <text x="320" y="142" text-anchor="end" font-family="Segoe UI,Ubuntu,Sans-Serif" font-size="11" fill="#e6edf3">14.7%</text>
  <rect x="20" y="150" width="300" height="8" rx="4" fill="#21262d"/>
  <rect x="20" y="150" width="0" height="8" rx="4" fill="#dea584" opacity="0.9">
    <animate attributeName="width" from="0" to="44" dur="0.9s" begin="0.24s" fill="freeze" calcMode="spline" keySplines="0.4 0 0.2 1"/>
    <animate attributeName="opacity" from="0" to="0.9" dur="0.36s" begin="0.24s" fill="freeze"/>
  </rect>
  <circle cx="25" cy="184" r="5" fill="#00ADD8"/>
  <text x="36" y="188" font-family="Segoe UI,Ubuntu,Sans-Serif" font-size="12" fill="#8b949e">Go</text>
  <text x="320" y="188" text-anchor="end" font-family="Segoe UI,Ubuntu,Sans-Serif" font-size="11" fill="#e6edf3">9.2%</text>
  <rect x="20" y="196" width="300" height="8" rx="4" fill="#21262d"/>
  <rect x="20" y="196" width="0" height="8" rx="4" fill="#00ADD8" opacity="0.9">
    <animate attributeName="width" from="0" to="27" dur="0.9s" begin="0.36s" fill="freeze" calcMode="spline" keySplines="0.4 0 0.2 1"/>
    <animate attributeName="opacity" from="0" to="0.9" dur="0.36s" begin="0.36s" fill="freeze"/>
  </rect>
  <circle cx="25" cy="230" r="5" fill="#89e051"/>
  <text x="36" y="234" font-family="Segoe UI,Ubuntu,Sans-Serif" font-size="12" fill="#8b949e">Shell</text>
  <text x="320" y="234" text-anchor="end" font-family="Segoe UI,Ubuntu,Sans-Serif" font-size="11" fill="#e6edf3">6.4%</text>
  <rect x="20" y="242" width="300" height="8" rx="4" fill="#21262d"/>
  <rect x="20" y="242" width="0" height="8" rx="4" fill="#89e051" opacity="0.9">
    <animate attributeName="width" from="0" to="19" dur="0.9s" begin="0.48s" fill="freeze" calcMode="spline" keySplines="0.4 0 0.2 1"/>
    <animate attributeName="opacity" from="0" to="0.9" dur="0.36s" begin="0.48s" fill="freeze"/>
  </rect>
  <circle cx="25" cy="276" r="5" fill="#f34b7d"/>
  <text x="36" y="280" font-family="Segoe UI,Ubuntu,Sans-Serif" font-size="12" fill="#8b949e">C++</text>
  <text x="320" y="280" text-anchor="end" font-family="Segoe UI,Ubuntu,Sans-Serif" font-size="11" fill="#e6edf3">4.3%</text>
  <rect x="20" y="288" width="300" height="8" rx="4" fill="#21262d"/>
  <rect x="20" y="288" width="0" height="8" rx="4" fill="#f34b7d" opacity="0.9">
    <animate attributeName="width" from="0" to="12" dur="0.9s" begin="0.60s" fill="freeze" calcMode="spline" keySplines="0.4 0 0.2 1"/>
    <animate attributeName="opacity" from="0" to="0.9" dur="0.36s" begin="0.60s" fill="freeze"/>
  </rect>
</svg>