<svg xmlns="http://www.w3.org/2000/svg" width="400" height="220" viewBox="0 0 400 220">
  <rect width="400" height="220" rx="8" fill="#0d1117" stroke="#30363d" stroke-width="1"/>
  <text x="20" y="22" font-family="Segoe UI,Ubuntu,Sans-Serif" font-size="14" font-weight="600" fill="#e6edf3">Most Used Languages</text>
  <line x1="20" y1="30" x2="380" y2="30" stroke="#30363d" stroke-width="0.5"/>
  <g id="slices">
    <path d="M 110.000 30.000 A 80 80 0 0 1 147.212 180.819 L 134.188 156.032 A 52 52 0 0 0 110.000 58.000 Z" fill="#3572A5" opacity="0">
      <animate attributeName="opacity" from="0" to="1" dur="0.3s" begin="0.00s" fill="freeze"/>
    </path>
    <path d="M 147.212 180.819 A 80 80 0 0 1 44.117 155.382 L 67.176 139.498 A 52 52 0 0 0 134.188 156.032 Z" fill="#3178c6" opacity="0">
      <animate attributeName="opacity" from="0" to="1" dur="0.3s" begin="0.09s" fill="freeze"/>
    </path>
    <path d="M 44.117 155.382 A 80 80 0 0 1 34.072 84.801 L 60.647 93.621 A 52 52 0 0 0 67.176 139.498 Z" fill="#dea584" opacity="0">
      <animate attributeName="opacity" from="0" to="1" dur="0.3s" begin="0.18s" fill="freeze"/>
    </path>
    <path d="M 34.072 84.801 A 80 80 0 0 1 60.177 47.409 L 77.615 69.316 A 52 52 0 0 0 60.647 93.621 Z" fill="#00ADD8" opacity="0">
      <animate attributeName="opacity" from="0" to="1" dur="0.3s" begin="0.27s" fill="freeze"/>
    </path>
    <path d="M 60.177 47.409 A 80 80 0 0 1 88.648 32.902 L 96.121 59.886 A 52 52 0 0 0 77.615 69.316 Z" fill="#89e051" opacity="0">
      <animate attributeName="opacity" from="0" to="1" dur="0.3s" begin="0.36s" fill="freeze"/>
    </path>
    <path d="M 88.648 32.902 A 80 80 0 0 1 110.000 30.000 L 110.000 58.000 A 52 52 0 0 0 96.121 59.886 Z" fill="#f34b7d" opacity="0">
      <animate attributeName="opacity" from="0" to="1" dur="0.3s" begin="0.45s" fill="freeze"/>
    </path>
  </g>
  <circle cx="110" cy="110" r="51" fill="#0d1117"/>
  <text x="110" y="104" text-anchor="middle" font-family="Segoe UI,Ubuntu,Sans-Serif" font-size="11" fill="#8b949e">Most</text>
  <text x="110" y="120" text-anchor="middle" font-family="Segoe UI,Ubuntu,Sans-Serif" font-size="11" fill="#8b949e">Used</text>
  <rect x="214" y="44" width="10" height="10" rx="2" fill="#3572A5"/>
  <text x="228" y="52" font-family="Segoe UI,Ubuntu,Sans-Serif" font-size="12" fill="#8b949e">Python</text>
  <text x="380" y="52" text-anchor="end" font-family="Segoe UI,Ubuntu,Sans-Serif" font-size="11" fill="#6e7681">42.3%</text>
  <rect x="214" y="70" width="10" height="10" rx="2" fill="#3178c6"/>
  <text x="228" y="78" font-family="Segoe UI,Ubuntu,Sans-Serif" font-size="12" fill="#8b949e">TypeScript</text>
  <text x="380" y="78" text-anchor="end" font-family="Segoe UI,Ubuntu,Sans-Serif" font-size="11" fill="#6e7681">23.1%</text>
  <rect x="214" y="96" width="10" height="10" rx="2" fill="#dea584"/>
  <text x="228" y="104" font-family="Segoe UI,Ubuntu,Sans-Serif" font-size="12" fill="#8b949e">Rust</text>
  <text x="380" y="104" text-anchor="end" font-family="Segoe UI,Ubuntu,Sans-Serif" font-size="11" fill="#6e7681">14.7%</text>
  <rect x="214" y="122" width="10" height="10" rx="2" fill="#00ADD8"/>
  <text x="228" y="130" font-family="Segoe UI,Ubuntu,Sans-Serif" font-size="12" fill="#8b949e">Go</text>
  <text x="380" y="130" text-anchor="end" font-family="Segoe UI,Ubuntu,Sans-Serif" font-size="11" fill="#6e7681">9.2%</text>
  <rect x="214" y="148" width="10" height="10" rx="2" fill="#89e051"/>
  <text x="228" y="156" font-family="Segoe UI,Ubuntu,Sans-Serif" font-size="12" fill="#8b949e">Shell</text>
  <text x="380" y="156" text-anchor="end" font-family="Segoe UI,Ubuntu,Sans-Serif" font-size="11" fill="#6e7681">6.4%</text>
  <rect x="214" y="174" width="10" height="10" rx="2" fill="#f34b7d"/>
  <text x="228" y="182" font-family="Segoe UI,Ubuntu,Sans-Serif" font-size="12" fill="#8b949e">C++</text>
  <text x="380" y="182" text-anchor="end" font-family="Segoe UI,Ubuntu,Sans-Serif" font-size="11" fill="#6e7681">4.3%</text>
</svg>