<svg xmlns="http://www.w3.org/2000/svg" width="340" height="136" viewBox="0 0 340 136">
  <rect width="340" height="136" rx="8" fill="#ffffff" stroke="#d0d7de" stroke-width="1"/>
  <text x="16" y="22" font-family="Segoe UI,Ubuntu,Sans-Serif" font-size="14" font-weight="600" fill="#1f2328">Most Used Languages</text>
  <line x1="16" y1="30" x2="324" y2="30" stroke="#d0d7de" stroke-width="0.5"/>
  <circle cx="21" cy="46" r="5" fill="#3572A5"/>
  <text x="32" y="50" font-family="Segoe UI,Ubuntu,Sans-Serif" font-size="12" fill="#656d76">Python</text>
  <text x="166" y="50" text-anchor="end" font-family="Segoe UI,Ubuntu,Sans-Serif" font-size="11" fill="#adbac7">42.3%</text>
  <circle cx="175" cy="46" r="5" fill="#3178c6"/>
  <text x="186" y="50" font-family="Segoe UI,Ubuntu,Sans-Serif" font-size="12" fill="#656d76">TypeScript</text>
  <text x="320" y="50" text-anchor="end" font-family="Segoe UI,Ubuntu,Sans-Serif" font-size="11" fill="#adbac7">23.1%</text>
  <circle cx="21" cy="74" r="5" fill="#dea584"/>
  <text x="32" y="78" font-family="Segoe UI,Ubuntu,Sans-Serif" font-size="12" fill="#656d76">Rust</text>
  <text x="166" y="78" text-anchor="end" font-family="Segoe UI,Ubuntu,Sans-Serif" font-size="11" fill="#adbac7">14.7%</text>
  <circle cx="175" cy="74" r="5" fill="#00ADD8"/>
  <text x="186" y="78" font-family="Segoe UI,Ubuntu,Sans-Serif" font-size="12" fill="#656d76">Go</text>
  <text x="320" y="78" text-anchor="end" font-family="Segoe UI,Ubuntu,Sans-Serif" font-size="11" fill="#adbac7">9.2%</text>
  <circle cx="21" cy="102" r="5" fill="#89e051"/>
  <text x="32" y="106" font-family="Segoe UI,Ubuntu,Sans-Serif" font-size="12" fill="#656d76">Shell</text>
  <text x="166" y="106" text-anchor="end" font-family="Segoe UI,Ubuntu,Sans-Serif" font-size="11" fill="#adbac7">6.4%</text>
  <circle cx="175" cy="102" r="5" fill="#f34b7d"/>
  <text x="186" y="106" font-family="Segoe UI,Ubuntu,Sans-Serif" font-size="12" fill="#656d76">C++</text>
  <text x="320" y="106" text-anchor="end" font-family="Segoe UI,Ubuntu,Sans-Serif" font-size="11" fill="#adbac7">4.3%</text>
  <rect x="16" y="128" width="308" height="5" rx="2" fill="#eaeef2"/>
  <rect x="16.00" y="128" width="0" height="5" rx="0" fill="#3572A5">
    <animate attributeName="width" from="0" to="130.28" dur="0.7s" begin="0.40s" fill="freeze" calcMode="spline" keySplines="0.4 0 0.2 1"/>
  </rect>
  <rect x="146.28" y="128" width="0" height="5" rx="0" fill="#3178c6">
    <animate attributeName="width" from="0" to="71.15" dur="0.7s" begin="0.47s" fill="freeze" calcMode="spline" keySplines="0.4 0 0.2 1"/>
  </rect>
  <rect x="217.43" y="128" width="0" height="5" rx="0" fill="#dea584">
    <animate attributeName="width" from="0" to="45.28" dur="0.7s" begin="0.54s" fill="freeze" calcMode="spline" keySplines="0.4 0 0.2 1"/>
  </rect>
  <rect x="262.71" y="128" width="0" height="5" rx="0" fill="#00ADD8">
    <animate attributeName="width" from="0" to="28.34" dur="0.7s" begin="0.61s" fill="freeze" calcMode="spline" keySplines="0.4 0 0.2 1"/>
  </rect>
  <rect x="291.04" y="128" width="0" height="5" rx="0" fill="#89e051">
    <animate attributeName="width" from="0" to="19.71" dur="0.7s" begin="0.68s" fill="freeze" calcMode="spline" keySplines="0.4 0 0.2 1"/>
  </rect>
  <rect x="310.76" y="128" width="0" height="5" rx="0" fill="#f34b7d">
    <animate attributeName="width" from="0" to="13.24" dur="0.7s" begin="0.75s" fill="freeze" calcMode="spline" keySplines="0.4 0 0.2 1"/>
  </rect>
</svg>